<mxfile host="app.diagrams.net" modified="2021-08-10T02:09:32.289Z" agent="5.0 (Windows NT 10.0; Win64; x64) AppleWebKit/537.36 (KHTML, like Gecko) Chrome/92.0.4515.131 Safari/537.36" etag="H1O7u3kMJeB5F6sxc5jo" version="14.9.5" type="github">
  <diagram id="49AaXAjEBNogbJfvNVWg" name="Page-1">
    <mxGraphModel dx="1817" dy="927" grid="1" gridSize="10" guides="1" tooltips="1" connect="1" arrows="1" fold="1" page="1" pageScale="1" pageWidth="850" pageHeight="1100" math="0" shadow="0">
      <root>
        <mxCell id="0" />
        <mxCell id="1" parent="0" />
        <mxCell id="irkbsp8metoC4uSoySUS-2" value="" style="endArrow=none;html=1;" edge="1" parent="1">
          <mxGeometry width="50" height="50" relative="1" as="geometry">
            <mxPoint x="40" y="962" as="sourcePoint" />
            <mxPoint x="40" y="40" as="targetPoint" />
          </mxGeometry>
        </mxCell>
        <mxCell id="irkbsp8metoC4uSoySUS-3" value="" style="endArrow=none;html=1;" edge="1" parent="1">
          <mxGeometry width="50" height="50" relative="1" as="geometry">
            <mxPoint x="800" y="962" as="sourcePoint" />
            <mxPoint x="800" y="40" as="targetPoint" />
          </mxGeometry>
        </mxCell>
        <mxCell id="irkbsp8metoC4uSoySUS-5" value="" style="endArrow=none;html=1;" edge="1" parent="1">
          <mxGeometry width="50" height="50" relative="1" as="geometry">
            <mxPoint x="800" y="40" as="sourcePoint" />
            <mxPoint x="40" y="40" as="targetPoint" />
          </mxGeometry>
        </mxCell>
        <mxCell id="irkbsp8metoC4uSoySUS-6" value="" style="endArrow=none;html=1;" edge="1" parent="1">
          <mxGeometry width="50" height="50" relative="1" as="geometry">
            <mxPoint x="40" y="960" as="sourcePoint" />
            <mxPoint x="800" y="960" as="targetPoint" />
          </mxGeometry>
        </mxCell>
        <mxCell id="irkbsp8metoC4uSoySUS-7" value="" style="rounded=0;whiteSpace=wrap;html=1;" vertex="1" parent="1">
          <mxGeometry x="120" y="480" width="600" height="440" as="geometry" />
        </mxCell>
        <mxCell id="irkbsp8metoC4uSoySUS-8" value="Homepage" style="text;html=1;strokeColor=none;fillColor=none;align=center;verticalAlign=middle;whiteSpace=wrap;rounded=0;" vertex="1" parent="1">
          <mxGeometry x="405" y="80" width="40" height="20" as="geometry" />
        </mxCell>
        <mxCell id="irkbsp8metoC4uSoySUS-9" value="Fav recipe 1" style="rounded=1;whiteSpace=wrap;html=1;" vertex="1" parent="1">
          <mxGeometry x="140" y="120" width="120" height="60" as="geometry" />
        </mxCell>
        <mxCell id="irkbsp8metoC4uSoySUS-10" value="Fav recipe 2" style="rounded=1;whiteSpace=wrap;html=1;" vertex="1" parent="1">
          <mxGeometry x="285" y="120" width="120" height="60" as="geometry" />
        </mxCell>
        <mxCell id="irkbsp8metoC4uSoySUS-11" value="Recent Recipe" style="rounded=1;whiteSpace=wrap;html=1;" vertex="1" parent="1">
          <mxGeometry x="445" y="120" width="120" height="60" as="geometry" />
        </mxCell>
        <mxCell id="irkbsp8metoC4uSoySUS-12" value="Recent recipe" style="rounded=1;whiteSpace=wrap;html=1;" vertex="1" parent="1">
          <mxGeometry x="620" y="120" width="120" height="60" as="geometry" />
        </mxCell>
        <mxCell id="irkbsp8metoC4uSoySUS-13" value="some other crap" style="rounded=0;whiteSpace=wrap;html=1;" vertex="1" parent="1">
          <mxGeometry x="230" y="220" width="380" height="250" as="geometry" />
        </mxCell>
        <mxCell id="irkbsp8metoC4uSoySUS-14" value="" style="rounded=0;whiteSpace=wrap;html=1;fillColor=#d5e8d4;strokeColor=#82b366;" vertex="1" parent="1">
          <mxGeometry x="285" y="510" width="395" height="380" as="geometry" />
        </mxCell>
        <mxCell id="irkbsp8metoC4uSoySUS-15" value="" style="rounded=0;whiteSpace=wrap;html=1;fillColor=#d5e8d4;strokeColor=#82b366;" vertex="1" parent="1">
          <mxGeometry x="165" y="510" width="125" height="60" as="geometry" />
        </mxCell>
        <mxCell id="irkbsp8metoC4uSoySUS-19" value="" style="edgeStyle=orthogonalEdgeStyle;rounded=0;orthogonalLoop=1;jettySize=auto;html=1;" edge="1" parent="1" source="irkbsp8metoC4uSoySUS-17" target="irkbsp8metoC4uSoySUS-18">
          <mxGeometry relative="1" as="geometry" />
        </mxCell>
        <mxCell id="irkbsp8metoC4uSoySUS-17" value="" style="rounded=0;whiteSpace=wrap;html=1;fillColor=#f8cecc;strokeColor=#b85450;" vertex="1" parent="1">
          <mxGeometry x="165" y="570" width="125" height="60" as="geometry" />
        </mxCell>
        <mxCell id="irkbsp8metoC4uSoySUS-18" value="" style="rounded=0;whiteSpace=wrap;html=1;fillColor=#fff2cc;strokeColor=#d6b656;" vertex="1" parent="1">
          <mxGeometry x="165" y="630" width="125" height="70" as="geometry" />
        </mxCell>
        <mxCell id="irkbsp8metoC4uSoySUS-20" value="" style="rounded=0;whiteSpace=wrap;html=1;fillColor=#dae8fc;strokeColor=#6c8ebf;" vertex="1" parent="1">
          <mxGeometry x="165" y="700" width="125" height="70" as="geometry" />
        </mxCell>
        <mxCell id="irkbsp8metoC4uSoySUS-21" value="" style="rounded=0;whiteSpace=wrap;html=1;fillColor=#e1d5e7;strokeColor=#9673a6;" vertex="1" parent="1">
          <mxGeometry x="165" y="770" width="125" height="60" as="geometry" />
        </mxCell>
        <mxCell id="irkbsp8metoC4uSoySUS-22" value="" style="rounded=0;whiteSpace=wrap;html=1;fillColor=#ffe6cc;strokeColor=#d79b00;" vertex="1" parent="1">
          <mxGeometry x="165" y="830" width="125" height="60" as="geometry" />
        </mxCell>
        <mxCell id="irkbsp8metoC4uSoySUS-23" value="Recipe Title" style="text;html=1;strokeColor=none;fillColor=none;align=center;verticalAlign=middle;whiteSpace=wrap;rounded=0;" vertex="1" parent="1">
          <mxGeometry x="418.75" y="530" width="127.5" height="20" as="geometry" />
        </mxCell>
        <mxCell id="irkbsp8metoC4uSoySUS-24" value="Tag1" style="text;html=1;strokeColor=none;fillColor=none;align=center;verticalAlign=middle;whiteSpace=wrap;rounded=0;" vertex="1" parent="1">
          <mxGeometry x="290" y="570" width="145" height="20" as="geometry" />
        </mxCell>
        <mxCell id="irkbsp8metoC4uSoySUS-27" value="Tag2" style="text;html=1;strokeColor=none;fillColor=none;align=center;verticalAlign=middle;whiteSpace=wrap;rounded=0;" vertex="1" parent="1">
          <mxGeometry x="400" y="570" width="40" height="20" as="geometry" />
        </mxCell>
        <mxCell id="irkbsp8metoC4uSoySUS-29" value="Tag 3" style="text;html=1;strokeColor=none;fillColor=none;align=center;verticalAlign=middle;whiteSpace=wrap;rounded=0;" vertex="1" parent="1">
          <mxGeometry x="342.5" y="600" width="40" height="20" as="geometry" />
        </mxCell>
        <mxCell id="irkbsp8metoC4uSoySUS-30" value="Tag 3" style="text;html=1;strokeColor=none;fillColor=none;align=center;verticalAlign=middle;whiteSpace=wrap;rounded=0;" vertex="1" parent="1">
          <mxGeometry x="395" y="640" width="40" height="20" as="geometry" />
        </mxCell>
        <mxCell id="irkbsp8metoC4uSoySUS-31" value="Tag 3" style="text;html=1;strokeColor=none;fillColor=none;align=center;verticalAlign=middle;whiteSpace=wrap;rounded=0;" vertex="1" parent="1">
          <mxGeometry x="342.5" y="640" width="40" height="20" as="geometry" />
        </mxCell>
        <mxCell id="irkbsp8metoC4uSoySUS-38" value="Tag 3" style="text;html=1;strokeColor=none;fillColor=none;align=center;verticalAlign=middle;whiteSpace=wrap;rounded=0;" vertex="1" parent="1">
          <mxGeometry x="395" y="600" width="40" height="20" as="geometry" />
        </mxCell>
        <mxCell id="irkbsp8metoC4uSoySUS-40" value="" style="shape=image;verticalLabelPosition=bottom;labelBackgroundColor=#ffffff;verticalAlign=top;aspect=fixed;imageAspect=0;image=data:image/jpeg,/9j/4AAQSkZJRgABAQAAAQABAAD/2wCEAAkGBxMTEhUTExMWFhUXGCAbGBgYGB0gHxsgGh8eGx0eIR0aHiogHiAlHh0gIjEiJSkrLi4uHR8zODMtNygtLisBCgoKDg0OGxAQGy8mICU1Ly0tLy0tLS0tLy8tLS0tLS0tLS0tLS0tLS0tLS0tLS0tLS0tLS0tLS0tLS0tLS0tLf/AABEIALEBHAMBEQACEQEDEQH/xAAcAAACAwEBAQEAAAAAAAAAAAAEBQMGBwIBAAj/xABFEAACAQIEBAQDBQUGBAYDAQABAhEDIQAEEjEFBkFREyJhcTKBoRRCkbHBByNS0fAzYnKCsuEkNJLxFlNzg6LCFUN0Y//EABoBAAIDAQEAAAAAAAAAAAAAAAMEAQIFAAb/xAA2EQACAgEDAgMGBQUAAwADAAABAgADEQQSITFBEyJRBTJhcYGRFKGxwfAjM0LR4RVS8SRDcv/aAAwDAQACEQMRAD8AvnDK1sZKmbTjmPKVxhkdIq3BlM/aFwzXR1geZD9D/v8AmcL2DBBjFZyMTJ2zWmQemL4zzB7scQduIkmEBY9hidoUZY4kqxY4URpkeEZqreyD8cJXe0Ka+BzHE0th944j7JcjuxGuq8noDEgbnCn/AJSxzitZc0VKOTGCcgztUqj0LnEjV6s/4iQVoE5q8iVAPLWqfJgfoQcT+M1A6oDICUnoSIs4hwTN0F1BvFA3UrDfTfBKvaNbnDrtkPQcZU5iVs+DuNJ7HGoq5GREnYA8wR885YLTXWx6DFn2ouXOJVQzthRLDwzlrNONVWoKQ7Df8TjKt9pqTipcxvwlrANrYjg8nU1ANSvUEmJ1Hf5C2FRr72GeB9Mw/h1joD95LU5BYXp5iqO0MCPyxddXqSMlVI+EpirPUiLc3y7nqfw1FcdisH9Ri6+0K84sQj85JqJ9xvvB1zj0v7dCkCSTta5vjTp8K0ZrbP8APSK2s6e+IDX59yq2UVH9Qo/+xGD/AIb4wH4gSXJc40KzBELK7GAHXf5gkTE9cVbTkDMkagE4jSpnB3wMVwm+QHP+uJ8KdvnJz+O8OTvE8Gbx3hyN4k+RptVcIvXr2wtqrloTcYStd5nXGMk1CoUa/UHaQf8AtiaLRam7GJR+DAM7xVKCa6hIEwIEknsMGWsucCDawKMmIa3PafdoufcgflOGBpvUwR1PoIz4Jx9cyGhGXTvO1+xGKWVbO8vXbv7QyrUwKFg714xbbOgdbMeuOxOgNXMnbviT6mRmWTkXKFqxboovPUnb6TgAO45h1G0TWeCZe7Md+mD1rk5gL2xxG7LgpiwMEbADDiVrhNUhoIkHAkPMZfpH9GrFsHU4gGXPM84lQFRCpEgiCPQ45xmVqODMB49wOoM1Upk6Vp3ZrXG40jqTI9pM7YtW6KnmlbObMZhWQahlaepiJN73J/njKtF2qfA6TUr8KhOsITmmpGoBESJUO0GpcCBcRc+8Ti6ey6wfPz+0T1HtJgSKxJeLc1ErSak9WkxiKSuGAaZYatNvSx+eGV0dQbCrwOvWIvrrjIl5oz7MqUqlVg4LAtTUeURJDbMokX/nirabToCzHp8TOPtB8cAfaRZjjnEKZBqZpVs19CWKxHW8322tO+IXS6dxuCfnOHtG3HaMeB815lmQVaiVfEHktGqJJEbg2gnufxHqdFXsJUHjrzmQPaNo5AEE504N42mpS002nzAkxe0iATdotHXfHezdWUUowJA6fCRbqxfhguD3ko4FmcsgNA0qaz/aMSWaQdpWLXvOK/iKrvNcCfhjiX/Hqi7axiQUjnTqD5lqni+QStgZBNl27es4ufAYe5gDmKW6l7Peg2bq1KTr42jxNV0Uu2u4DXkgCdLWKxpsMGTY6naOPXgcyjWuepjfJ83ZjLVPD8Q1AULIHAJbqBqERIkAmTIvgf4ZGTenl9e3z+cdXXuR5xmWmjz9RLBK4WmZ+IzB26keo/oYUsouY8AMPh1jlN1TZwSPnHNehQrrbS6sOlwfYjCQY1Wb04Mb5K4bkTOuN8n0E/eeCrUyxUkSpRhujBSB7GLjHp6b/ErDiZllQR9sEpcLp0TK0QjdCQZ+Ra+OFu/oZXZt7T2qxOOk5kWg46dzOlonHSdpk60DE9MQWGduRn5y+0y3/s+yU1GYjsB+Z/TGP7QIe9K/rDplai0g/aNmAM0BtpQfUk4doXGSBA58ozEFKgaiXC6D/HEH5HfBS209Z3WC1OCUluKFFv8ACoOLi1j3keGvpImzYAgAADoBAHyGJwc5MkHEGqZ3EhZ24QdqrESPh21H4Z7aoibHrjupwDO3EDMX5nNspGoROxmQfYix+WO2GV8Qz7KvqvgNvpCV+s07knJkUwf4vMfyUfhf54oojXQTQ+HVCFGGEOBFLVyYW1ScWLQIXEhKnAsQgIiGjRhNX4emBAYjJOTiMi0w3cYLmDA7Qmi8iIwQHiCYYMz3n7L00r0qrnSHBpM4+7N1b2Hmn0wrahbO3rBahCQCJnGdyYaabsKjyIYKQJO7jc7KJGx1SMN17iAQMD+df9wAW3IzPqlBXu2moVOkgxIGwgatRB7DbrgB8RTgfSbVL0MM2KIy4TQWhWBp2YEBqczabgqTb85GAWeJYhDg4lr9LprBhCMx3n8qtdw2upRX+FAB+Jgz/W+EVt8JdpAPzlKPY/GWP2nx5ay70zSaozSQQTY26HofkBiU17hsrgfnKWexSOQZSc/RIHhKYa7IjpcFt1DzjYQj3z8iQf2mIaXQeYTqlxLM0tJJcrHnmTYSTBNgSBb29MX8FHB295NWQcrHvGOcPFpJl6VJy6tJm4iZFl379vywjToBX5rDxz8JavSktjMhGd4i6QaBYTqlaRUyZvIkCxi0WA98Q/4TIw+PrHF0IEYcMXN1BSR8oSEMhyCCATJlit46Tt64Xut06g/1Ovxlz7MR+ScSwDktXVzWqkO8Gno0xq3g2iTG4AO++CprKcYDZIHYE/eDXRKp55iXiPAM/TamrhqlAsfMFDOpZYmQJI23kQSMV0+roZSQMNjjOQDI1GkQAmowam9Wg+qi1Sn5wSNErYEFNFjqY33MRHphp6luXzgHj1xz65lKPxNQ4+0bcmczmtmsxRrrpRqZdgR/5ZB1D1gzPpgtOm8NCgPB4l2tdmy/UdJpebyVOrTKVUBFxO8HaQeh9cYm5tOxBGMd4wTnoZVKHIagk1a5RQTEaSzAdhFvc42zqK1q8SxgP9wPmLYQZjIcMyVCmXXLipp3NRyfTYDT+AwqPalZOFX7wo0rlsM2PlF//iOkTpTI0G9BSBxX/wAk3/qIf8AoHLGWngFNHy7E0hTDE/uwBC9xH9b4BSVs8SzuTAX5RlUHpE3K9FKanwixSZBaNRB7xa22M267fqWdfhG3r2oEMRc2cMFbOBjJDAECd4tce+NzS3p+HLjtE3TBCw5+VabXqF2b0aAPTa+Ma32lZu8ghRWMQHM8tCl5lLafUzHbDuk9oi4+G4wZVkx0ibjPBUHmM3F4tfGxU24cwLCU/jdMUyEANwCRPe4+kYuxxC01A8ma4mXp5vhxooAAaYamBaCLr7dj88ed02oaq4q/vAmHur546TFK7Lq8MyKZMEEQUbYmBbUO43G/YeoDDtEGUqcGd8NQrKndSQfcW/PCWo6w9XSbTyikCIsLDFUjFnpLfSIjBhFGzmfCqAcVzgyduRCTgkCIp0ApbASOI2Dgz2gSFgrjgeJB65zJqb229MXU8ShHMpP7UMq70aeiZ8UbAk/Cw2W/XFdwU5MIqkjAlGocucRqaZpqgJnUpp6lMRPxTPv+mKHWUAHHM7wrD1OIbw3lnPpU1+CpJvOtlM9fgHU3+e9sVPtCk8c/ad4LdyIWvK2bIFOpSaoJkXpELIuCW0sfqMVr19TE44+hEsavUxRm+Vq1CmCwq0mYwNLwoubMVbTJEQBuTHpg4vrsbGB9R/ydtZRkH7GKvt2byxguao1AAVLm/wA5npjrdJTbxjHyhK9XbV3zGnD+LZqvUpUky6fvHCrUD+VTMktIO28b+8iQJ7PrzgMfkZGo1rMhBUEGX3nHhVLLZFFI1EEKCVkkk+ZyAPUttF+2H2XauBMxOWwJT+CUazqFy+UNNjOtioAiwXTJUEQCY7nGVbXVu/qvn0E0VDYyBiWXLcI4q4UO1GAD8TESTs37ub/3br+ohp9GOVSVLt3MIzfJmcrhFbMgaYU6ZAKwTcKBJ1QZ9Plg1fhBvLXyZVnAGcwzM8jVzoAqroprpRYaQPQk29I9r4MwYg+Tr1+MoLq/Wd5Pg2fpMJr06qydQqArY9oXcC24/TGcdNSMjZtI6cmG8RSBzFmV5Z4gghalAiSSGqMdiNJkJuI22k4fFiYH8/eV3gf/ACKafLWeXOK9RKARlqqTTY2Vqb2MqJEwZ3tucGqvrY7Fzz6ylgJ83HEveUz3gui1TeuNSqfu2ET2k/XC2uOyzIGcjn9p1VfiVkjtJ+LcMNbSykK67N0KncET88ZNiGxcHtD0XeEcHoYTwrJK+WNNwGIlWtvH898N6WlbKDjqIHUWMl2R06wTilWnRpN4VKIHQAD6wMK3WIVwq47ZMPQrO/nafcl5zxMvJ3JP5nBdH5N6SuvTDgwTgaBUIuAJBj0tjPTmxifrGb88Y+E64QaeZM6QtdAQI2qIDI/zCN/X8NzTOt+nOnHDAcfGJaqpqnFnUfpHDOqgd2Nu3zxlMRSMEc5/mZAy0h4rSXQY6qcV1KVqytX8JNbE9ZROZJXLkH4mIPsFBH1JP/Tj1NKnbk94FjluJT+NZY1qNPNJJhFpuBurL5Z+agfg3bFnGeRG9IwxtPWWX9mfE9VPwibobeqtcfWRjzftSopaLR3/AFEcYZWV39ofAVp5wlBav55/hI+KPQzqPaMbPs+7xK9vpx9Jn6gcAyvZCqHqO3RqhP4tg2o96Vq6TauV2398DQ8Ri0S0JtgmYqZ8VnbEDkzs4kyn1xfrKGLsnWBAM2O2KiGIk9ZwNuuIYyFGZ4rErYQe3fEg8SMcxBzNmiEEJrMyBfp6C57R64DcniKQIZTs5ijKc3gQHUIYupsY6GDFvXCTUMkIArd45ocz0yLHftGKNuWd4GYbl+MU23I+YGBq/Pm/SQ1DDpD6TU6gKswYfwxv9cFRkbgt/PnAMrpyBA85wKgwgZZY9AAbbXHbpiWLDlAfv/2Sth/yaBcI5ToDNDMrRKGmpi5gsbTBvIEj/Nh/QPbZksOO2YLVFQAAeZLzTxBlzNGnMK4IJtbrq9do+YO04vrK2ccHpI0jBcnEBbN5dGJfzkdXNvwH8sZAVAemY/52HpJk5xy6nQgntpVz+AC4N4jKPcwPU8Qf4Ut1aF1OYakr4dEkHcmFI7WJnAjrwOh/WcNGMcmMsvxlzE29+nzAwxVr93Vvvn/UBZpAOkizPNNJG01Cq3iX8oPszQG+WG/FLDsYP8NgZ5E7fitPTqICjo1iD7Hb8DingluwE7GO8XUeIpma+ikoYU1LVKhiy76B/iIAP92e+DV0bAXHJAMq7cbSesWc2KleiazakqiJ1qVYR0ixj2t1xh23W+IHfqe3wmnpFCnwx7sO5P4qK9KGMuvlb36H5j6ziAgD4+0HqqihyI84ZlTRZtJlXbVckwT8Q9puMNaYtW/HQxS5xYBnqIuzdRKqVlefIYgHYRI298IWNuDbuo6fKNIrIyFe865coLTQeGIQ9L9ffHaR7N5d+8jVnccN1nFIimaizcufrf8AXACwR3X1MIQbArfCLaGSp0K3kqEKsEAXII3uenpgll3hXeUnI7iFy1lWCOs+4xzS9Aq/hNUSoWuItEdIi8+m2NXSM2rDNaMjPEz7qVrwq9Z9kuYGr/DQZB3ePoAYw5XoaEbcF5+JzAktjkznMcGOZYoX0yJJN/pOCX6jw2CjqZZVG3J6SmV+Ws9k6z+CniJ94RKOOkjcH6j5A4ldWg944khc8r/qDUs2cvXpVWyj5cOdLndTPYyCIN4MnfCur8LVUstZBI5jVb2IRv78S0c7ZLxMrrEyh1f5TuP67Yy/ZV3h2AHv/BL3puBmTZQaNZ/hJP4Xx6C0EuBFKzgZmycr1wwYg23n0N8LpxxHLOQDLYJsPTBT6RTjrBPtwAYkxBM/LFN2IXZme0s+CAQccHlSnMUZSuFpAjtOJaX7zjI8WNfLl13DMBH90mD+AnFTnpJ2iPhmfKGmYGCboHZziZfzRx+oeK5dKALGiCXUAkHxLMCB00R8z6YYpHlLHvB38uFHaWLw8pXoqc3RC1kEKKgBWxNyA0mRG474o99KdTOSm5vdHEhyVHL6CHShM2FLLEBR/mYSfUR88K2e0NN35+kYXSajPH6zteFZUjUPHpt/cJj0gFiB7YAdfoj1/SF8DUjuPvCMtkqYIjMVgLzqRQR2uFjATboG6HEtt1I6gGFZXj70pDU6pUGzAq5j2RdX0wzSNMfceAsrsPvLG3DuYRUQVPEKgkqA6lZI6SwHT9exxoLuHeKMi9MTNv2l8eBqqrKVZZ8xkR7evri20mRkAYj/AIblqiZGgKtRzXqrrZibqrXC/JYF7zOFNbclC5A5jOkRrDyeJE/EstlRJYCTdjckje53xgGnUapskEzQNtaDGZEnN7MXahly6JZizKIPoCZJjoAThxPZ6oRkgE9IjZrqgOsmp88Mdf8AwrMEMMV1WF4IlfMp0m6z0wR9GBjJHMEmsqPUkQ7JcyZXMjw3hSfuvcexBv8ATC76Z6znkfpHEcNyhB/WNOG5KnRDIoHhPvTN1v2B6Htt2jqxptdg7LD9YO2rdyJDwNKOR+1uEJo+VhAk6HJBB7hWBHfGpZbtqyBmJCkvZtzgyfOZ7L56mQGVqfSDcesi4OPN6rUXeLu24x0Bj9NZq6HkxDkeWTkqn2qlVcrADI0GQe8AbdP++LvqmekblGf0hwVsOw9fyl8yGbFRQQZB2IwWq0k4PeZttWwyuIrUeIVFqf2dcDT6kAA4pYArgP8AI/I/9j4PiaYFOqxtlaJouaf3GvTPbuv6/PFWrNTbQeD0MA7C1d/cdf8AcVcwUyMxScTpqGD6FR/tOFtQM5s/mekb0bg1FPT9ItqpGtmMAFgPkTGF28zYEaBzjEsPCkWtlSCAdFSx+UH6/lj03ssf/jbfQ/rMXWjbfn1ElGVVdhjRiucwPNMUYOOm/sbfnGMr2sh8IWDqp/IxrSkElD3/AGh9PiEQx2ax9MZK6vb5j0PWFbT54HUSoftH4SSVqCTTIsOit1PzH5Hvjb9nioE7e/P0gGcsoB7TvgeeFbLFG+JF0sD9D7HGLrNO+luz/j1H3j1Th+e8yzMZc661MCWMgAbm0Y9GtgO1zwImUxlBLTylXrUqdFKnlYEKQL2nyz6xb5YA9tbWE1niN0owqAfrNMGcYm3tOLFsmA2ASvc3VCKSgeUu4DSehB1fTEAesuIy4ef3awLRiM4lW6xRVY0qD6pgIfywU8md8ZN+z+krZNPaDjiuWMgsQBH+fpqiRsIk/r9MVKyUJPMomUpSGI3qt4jR1nYH0UQgG0gnrhLWavaNi9ozp6h7x7xlQyA1AG56/PGI1rv0je7Ee0cgq2jEjTsTyYA2k8wn7GgiYHaTgw0OYI3mTUeFhpJJURa388ET2cGyXOPpKNqivAGTIKnDuxkf13ws+kKnynIhV1HHTEG4pwkOnh1FDIelx8wQZB9Rgq3anTHg8SA1dvWVs0Myc3Sy5qk0DcaviCrdhPsLH1xuaLWDUrzww6xa6vw+V6GQcd43rfNmrTeEUCmqtpEiQQX2uIP0ixxFqmyxc+vz+XEzX1NlRKLK9wziFMUHZEVtYVGSoxCqtOSKhkEyddwDvN74JdSTYNzdORjrk9oqAztI1zdOu9ShUqaaZ0sKtJd6gEG2kghpN/TA3RqlDqMn0b0+ccXQWWKMRvlEY1dRy6GmXL+RitSYMEEmx1EiQQdJvJAwFrq9uN5B6eojB9kXdeIlzfD3oMav2R/CJhqJfXIMHWGUHSe3aB3w1XYHXabAT69PpBtobkPT7SzcF4waIJ8TxctNm1fvKQ7OpuI2mPfvjK1OmL/47X/I/wD8n9o1p9SSdlnWX7h1FK9DMUdQ/eUrEX3BE/KAcPeznZtOyN1A6Sur8liOIj47ydladJXyyaXRd13cdZYbse/fC2pvCnbuzn7D/kNpbnLYbpO14glegwdjAF9J0kQO97++MzxGR/MoPoI0aSreTv8AWQcvVPspWl4rslaWXWwYqRFtQAkGRFt572Ztt3gso29uP1lbadwJPJEtnFMh9oohQYqKdSN2YfodjhoAXVhW6/r9Zn1WeDZnt3nuRqDM5eNnWx/uuv8AviK1F9Hhnqs63+hdkdD+hkWgVEhh5lMx2IwjjehB6iFzsbK9DKnzE+mjVbqDYf5hYYFp1BuA/nSaSNjEs3KeWNPKBWnUSLddt/mZx6L2aQa2+J/LtMfXtutGOgE743xSjlaRq1ZaDAVZ3/vNsBhk6modDk+gga6Hc46CQpknzdBa3iGm7KCEUwgHxBWH3vU9/wAMZ1jNqEds/DHaMK66ewLjI9e8T5lmWk6aTrQ7A3keYR3nGCow/ht0mquCQ47xhwfifj0P3beYrKkX37jt74a09tlDFD1HT94pfSobcehkHD+W0paqlUjW48607KOsAG+/t7Ya1Lh8eIeB2g1s5xWJXeYeK5TLAoiKrNYhR5jHc/zOBVU3anBHu/GH3CvljzKTkuKO1eWgBmgKOnY+8/njWNKIgCwVdzM/mmucv5sPTk9cXWVtXniAc6U7UCCohzBad4tt1sfri+JNIyYTk2bSLD5YqBLsBmKeb6oOWCA3qGPkN/5fPFwPNmC9Yz5LpaKCAiCB8sSPWVs9J9zlXPgFf/MZae+wqMFJ+QJPyxC+ZxO91SZm3H/ttGrl8vSdZqizBdJmTqBkmInobg98WOnpUNY4z3gH1jgBRK1xmrXp1Yq5hmA3BJI/CDH4YvpxW6eVcRZtTYT70H+1OGpt4jvSkFgoIsDcbAH54KEGCMczg9r88xpkssaqioaxJUurINQcrusBQbje0/ScCsYIcBeD37Z7wbtah5zCmyGYpgvlqxZRENrFRWkGfiSAf9+xwub6uBYuCfp+ksurdR70YcN584hQAWpl6dRAeihGn1KWn3XEvpNPYODiMDWN1bmWbJ/tKy7kLVpV6Rj7ySAf8pLfTCFvsxv8WBjK6lO4x84bn8+jK+aosGSnTKSJHncgabwQQAZB2kYJ7P0zUsxcYhLLldQqmUDjGazGpEzCxQInUqEwCJZTBAD9DNxbphtFpO5k4b4n+flM67TMDnHM64hnKdek6UKdUGImwUqCGFjdWlfUG/tiKKGrcM7D95SmpwdwEC4Nw8Fh4juo/iDWF43LAb2wxcj/AOE1abtvUS3a8np8mcqroElQ0s3+EMCL+pnuBjOuS4kBagc9zD/iiOpjzgK5evTvXqxYRVCiC23mCAEmNpO+M3VV6ip9u1fmM/nI/FMeRE2fyYyNaoy1FrJVUgppUGVPw69X8LSREH0w9Q5uTYy7SO+f+TK1zkkMYZkePLQXLVcsWNMVQtRAjyEKmYJn4TB0jr7HBaKbEuYk84/hkV3l6/Dfn5y/1OKUqRSnUdV1jy6rBv8ACTYn0nqO+FnosqGxhlfWHC+Idy9Ys41wujXQuDpIBllMEj1I3HocJ+4u5eMdjzHKLHQ7TzK5nOCpSphzVZibSxsskERe3acUGoazAAHyjtdmWIxLHynxzXNJ51oY9/X37jB0c1kA9D0+ER1mmHvr0jpqYpVxVUAJVtUH97YN+h+WGGfZYtg6HgxMf1KjWeo5Hy9JxxxDTcVFEhrNHfof0/DAfaNJrsFqd4TSMLENbdukX1qa6wzgTvHYj9cIbiLNx49Y0CSu1Z9xTjX2egKgE1areHQXaSd29gOuNfR7koa08Z4HwHr/AKi3hB7dnYcn/U44rT/4diGEldukdd98ZoqULvDRmpv6uCIJytxBlUhiCusgDtYfrOIFvhEEH5y+qoDnjrGWdyy6mZm0hwJPWdrfLEWKpfLn+fCBqdtoVRnEW/asvw+mUVgpYknUfMxYk2Hb2tg5e58hBz0z8JYVm45bpEGf45XrVdCIfDKzqWbmdi2wt+t8V2V+Huc+bMZSsIcCJ+K8p1QWDMpVlBO8hvQ+x+eHatbsULg/8gmVbJSs5TNCqomSDI6bY063FqZxFWr8NwMzXeV6upBBgbzgS56Rh+kccYoLWplRc7g2IBGx3/TBXHSDpOG5ivJVG0Dyn6YHDOBmVermXzFcabpTOgfKCfxNvlgzcRdME5l54fl9O3lHoFt9Mcs5uYLxBA9ajr+BX81ty48JB/1OG/ynFqQC+YHUnCYEqP7S+Y6QzQFEJUSkp8UBgZPby3EEAT39sEsr8TgHHxmWxzxKuufp14IQUUj4RYn2g7YUNdlZwpyfWaXs+ikAtbC8pnKCD4GKzFlMXPXAn0+of/Kav4nToMIPykWd4e2YZHQeHB8rAaYkxc77gbxv64dpQVKQTn1zEb2Np4HEaZF6uXbVoaROt9UIZgyFby6u5IknqJjArqhaOvHb/wCxcadBwRGeTzWQqHW9NqVQDzhUPnHQkLIkbyehN8Zb6XWKdqsCvx7QxWtlxjpE/Fc1l6VTxUK5hHEMkMtReoaGEMfS0g4c09VjDbYu0+uciD1mLFGOol6yuSp5zJ5FaKhqLEeIgEDUqlmDDodYuOs40Lkbb5IvQ4Q+aFZ7l0VFYPRtEDS0H9J9jjC8OxDkCafjKe8qTcgZtKyPQqXFtVTpGx8tpvG3640atWTw6EQDhOqt9IRneQKimS0kk3CEbxPw6h0nFbNW9bABePvOrCOOTzB6vLNQSlMUmJFw5KlY6i0drHt6TgTe1a198EfSENXGRImoV6K+BUpNW1LAakdSr6aYWT11E2n1OC1aumwbwcfPvOKsD0kdfL0Qhp10rUpPkqtqNz8PnMjrt3HbDC2LYfKQZRkyMMJa/wBmuWVM2+mqKg8JmYxHmZ1ubm5H/brg9Od3MQvrVFGOssnOAy1VVy+ZEJVMipMeG4gIwPQmY+mxOCvtPlbvB1bl8y9pT+FcqvRr1FzL6l0wjISNYP3zBsbRB9fc+e9oBaWFY78zZpuaxN46jjmC8X5QzDtFDMMmWUX1+aWJ2APQCLnvgdWpqSs2Mu45+X3hTcWIGcGWpMklKgFoqNSL5O7EfzO/vjOe0WNu+MGrMX8/STUKlasGRlKEC9/TocFG+wlcyGFVWHBzJ8lx1HXwaoYVJ02EyRtEXnDtepFtXguDntiAt0prbxEPHWdrk9BHiEM7HypvE7Fv5Ya0vswIQ13J7D0g7NTuGK+B3MQc4azm0cIXCfuqSqJItLvGwk+UknoO5xT2lYbGNSnAEZ0KqteT1PMVZ9KzUianiUomFIEfPc4yVRa3AGD8ZoIUJ8sno8Kq08pTrizBQzL73OD2UBju7QQuVrSkslGstZNLbjf+vrOA7g67T1EWZTU2R0huZ4TRropKqWUeUkXGHhWtlQ2HtFVvepz6RXlUhjqVVVbwOpGM1T5uf5iPWHIG08mA8X4XXqSfGCg9FW9/UmJ+WGMheWGfr/qcjr0AlH4ryos62l2Frm59bRhmn2iQNo4Es1Sscw/lfOFCEmCpiPb19oxoVtnkd+ZxHlxLv4xILEAL1JP9fU4MckQAGDJstSUqDvPUYgITIckGVTlrhM5emNi/7xiBfz3AHyv+GGWUNxIU7RLnTyRo01E6gbSRBH1g4kptEELA7xXSqTSrPIBmFJE3hgh/6oPzwvU4AcyupXLKJVzyVRf4WIsVaYBgm4sIgwMZya2wDC/nJXRUrycxrl+QsuKaK4DBBYFjvvNomZvifGv97cBDbq/dAhtDkzKbspUkydLneZm+3sLYLVqWwN5xBuTnyiMsjybQptqpuSR8OsBtPtsR+OC31C9Nhf7YgfxDDqIJzByk9UArVVSJBOhoYMCLw3Sd/fAqK20qlc5EuL1c9IhPKeapp4dBaLk2Zg3Q2uH3N5sdwMNLfvJOc4k71UDPEXcW4HU0lWyRXyhVaVHTckMYj8ccdQFHmMkIG4WNuQqf2CkmVqvpavLMWP8AZu4GkSewAU+uHlbdxEnUAZjd+Z6uXPhZpAHBhKhtTrDp5tqb+/lPcYXsRjyOvx6GXQL9P0klPnrLmotFg6VGYKEYQSSYEdwSdxbCubM4KH8sQ/gLjIYRqOMqKhQg6uxkWP8AiAx3h2g9MymxSM5hJrKxBbQ0bAkGMQaXY5ZZA490mFpmgIGgAekRgyEg4KYgzWeuYBxHI0aisrUhB7R19JjAn0lZOQMH1EIltg75ifgPKtLJ1GrUYUspXU3QEgkBQYGw64cpQr3z85S2wP2+0E/aHxVWoGhBaficiOxgfT/fBHbJxK1pjmZ3w7nipS/c1x4mjyybEjoQw2te8jAr9JVcMOIVLnrPEtmU5uo+EwDmmG2FRSwHsVk/jGMq72S2TsPlPaOLqK2IL9RLLyznKdVQwqrVqWnTYL3gdvcnCB0nhvkrj0kXuT7vT9Y3zufSiJZgB3YgYM1hRsJzF0r3ym5nnVBUf7NSVSx81Y3ZunlB+Efn2xt6WsIucAMesHZlvKTkDtDuWOIeJmaeppJaZPUwThge8INx5TK/xnjNf7aGTZHfUptqUswt32ke2PPW1LusLHqTg+k3KkBqUD0H6Qx+YFrVVyyozGq0FtJAUQSd/QYUXSWEGxiM/nL7BX5vSW3mYAZfwwDBgEDoLT8sM6ttqBF6iZ2jybSxirK5CpQYOpJpHf8Au+/phEo4UOv3H7xxra7BsPWMOIcS8Cl4sFlX4wP4f4gBvHp0nB6sjGDz056RUV72wZ1Sy5qAj4S1we39WwCqvxmIbgmXezw8EduJXM7SzWs0zURD92dR1eoJMfLFvDrU85P1jCupXcolM5oo52irMXBAEgqoscamlXTswG2Ddm2EgwDljNMT4jMTJEn2wzcwrcAdJ1R3DmbBy6iSSVDknc3jtANhaDh6kriLakN2OIyqZO9jp9B+eJZOeINbeOmZQeTOZqIpKjtpdQAdXWBAI+QGIzgwg8wln4tzFTrJooNqIHmImFkhd+99sC1N+BgSunq2sSYlr5OtVylUZckOrIRHdTqH1AtgOlryrSNS+GEQcT43mMv4a5nQKrEAinqMDvA3IFyBPvjm0KE7s4EtXccYxkxenFuI1CdOhVmxM/lhNxpU6kmO11WMOgEbZU8SMH7Sg/8Abn8zhVtTph0U/f8A5C+B6kRvlM7xBd6tJv8A2yPqGOKfjqh0Dfcf6lW01Z6xll+YM4LNSpuPR2B/ApH1wVPaK9yft/2BbQ1nkQvLczkt5srUTuV0n6KZPtGG6b6rWwrDP2i1ulZBnqJDxXmzKgKKlU02BBC1ENMmLxDgHD40rEhiekVDhc47zKeaOZBWqtBkTcj8sOKuOsGW7CK+DZHiJP7hnVCJh2Gg+pRpWPUrixYY5lQjE8S2cN4jX0ClUy1DMKIvSplF951pTJ9VSO2F31NK9TiMrpLmlvPE69ZdNWl4cR4dQVgzr3u1ESD1kt+uErPaunHfMMvs9x3nxoArDOzkm5YLt6aVF/Uz7YWf2vR6Ewq6Jx3kOXy9VDNOpAiDM3/6dI+mFv8Ayqdl4+f/ACMfhxjzH8oQ+dzCjypSbvqZh9b4IntWk8FcSh0mejSbIcUqvqD0AlQCUhtQYjoCRY/LGppr67OUid9DIOZROOZqvVqAsAI+6BvN9TMTJP8AUDDpGOkTWE8G5AbOMuYqt4FCILEeZ+wQdevm9t8Cdgg3McCTkk4UZMttPg+WoqaeXoKhFjUqjW7T1E2Wd7fhjH1HtMElEH1M0KdPtwzH7R3wrL+BTl2k/eLR/wBowmhKje061vFbaskbOFKZenueumR7e2K06pqAWTv144kGkO+x4r4pwmlmNOujTR9Ms1LymfyPzGDv7WvyAFHqf5mVXT1qDycRFX4fV4fWoZgnxKHiLNQfdDHSQ4+6YJ9D36Y3q7A6ixehxE26lD1jLm/h1QlqmXVapWqZUmDpaZCm8wbx2BjfHnnFLaixS2Bk/eamntIRQR2i7kjMGtnINMKEUmZki4EbDufwxavTqCpBPMNrLNtREv8AmCDU0mCNO3od8Te2b8HsJloCK8j1nnDxoLU41A7e22B6MmqxqsZB6fKTf5wH6Sq5lHo1GpVCPDDfuxuWG4Eb22tvGFtXUQ5CfX0E06XFlYYde85zw4gj/aEVPBWnPhk+ZupsB2iL/nhmmsCsFhz69sQOaWOzMYZPilHNJpqU9LdUff3E7j1H0xRivf7j95U02VHKmIuYsjUWm8TVpER3dfb+IfX3xFOMgg4+Pb/n6QoYEc9Zn3K1PyGxHnaxFxftjR1584+QlaBxLNTz2dyRRtK1aNUjw2mCsyYNjtcT2Aw3QylB64lCSzEGWGrxTNGCYuOh/ni++Vwo4xMo4YwqUCTvEXHa35RhqzhonQcpNG5Rywp8OQgQWA+rT+mMrUMSx+kbTtC+E5zRncqIOlzVDdgFph5PsVH44d9n9Gi2sHSLuPcay1XMPV0GoEJp2jy7yd95gx6dt19cXc7BwP1lKbGQYQczjIcVomvSVglOnUgI/iSGidRYNBS8AA3nbGa+iLJkdR1H+vWNfjL1Q5HMseborTQuZ8NZMkXCzp1EATB3mNpxneAztsSGq9oIw83BhnCsr4yalBsSDqEbWMTfBK9G+cGQ+uQNjPEJocL1glD1g+4xejRC1cqZA1w7watkmQ4E+lepoylyuIDxAk0yrIKqRDU2FiOumfhb6Hrh3Re0nrIV+RKXaZLeRwZnHBOWv+OK0vNQjXTJ3vbSw7oZn2XeZx6gOrLuEx2Rlcq0tnGsqA4oA+VQGf8AvMbie4Agx6+2MT2hqmU7RNfRUjG4xlkAAAAL487Y7E8x5ocKU3wEAsYItiH5Th0gk2A640NPoWcEtwItbqApwIXV4O6iRBw3Z7NsQZXECusRjgxXVGMe0ndHFMAOYVTGsX9duxwzpbLK2DCFcBl809yeRpVP+JZZp9R/G5JlZ7SCT6DHq9RqxTR4pGenHxMwRUWtNY/gjDiPEHZTWppq8K3hqdk7qsxY9rx3sMYDaizWt5jjHQTQrprpwh6HvF/Llapmn+0OSKeyqREmfjPX0A9z2xXwVVtpOT1J/aGuIrXaohXNuYqMqikRpRgW9dJB0+3fFrLgWwRkYxKaWrHJ4JjXI5g1Vlf7MCw79/wwuqs4wOggbFFZ56xZxHOlayAk6SGv7EW+uKOpK7s/CM0oCpHeL6WerpmKiiiatCoo1qR5CCNLDzW2H1w7odQaEDZ+YlLqUsXaevY94eeJ0UYIrNpO2qZX0k7+/XCWprQuWqJIPPxEslNhXzDkfnCOXaVL7VVqL8TKoMbGC1/faflhnQ2MSqt26flA6wMKgDF3G87WTPKyqTTA0tA+e5tO2OuZCCW4OeIaitTRg944p8bBdF0spF9RiCOoEHATfjY46g/lAnSkKeevaOM41ORWOnaNVvzxoXujFbREag+DWIv4rmKlSmy0QCWUhWYwJi2wk4E9otOOojFVYrOXihuJyjU8xQY2OqFJ6Xgjf0i+FkchsfY9DGmpHvI0oPOiNlciCKtbxc1VPgqztqSkDMkTuRA+ePS6TTJxYwH5feI6m8nKrA+X08szc3N5knvjK1hJaP04CzSctRFTI0JuUf8AIsP1w1p/7YgM4uMV8Q1F/KJAEH3w5WmRmCttCtgzI+B14Dr7H9P5YbtweYlpmPImvcNEcPoj+6n+knGJcc5+c0U6wHPu1LLVa4ElQyL6aoLfQC/qcO6LgFj8oHU8kASm8r8t03pmvXqqjljALgGfzgem/sLr+0NdYriupc/SW01AC7m6xuKWUpxqbxyD11jr3WJ7YTR785K4EPauVwp5jzIc3qxKCmrU2BECqsmew+7+JtgJ0hQEsT9uIkujBHvcxrkuKZnwB+5Idfgdaqs2/wB7ygH8Dgf4qpHOD+UsdCfWD805/OllOUSBN4K6ifUAwB7z8sGq1Om3ElsH16S9WmZRzF3GuasxlCorp4rMupgAFCjr5wNJO4iD0uNyahV1Y3bvh8/pCbvDHSNeEcbpZlFdDGtdQUxMSQbA3gggxsRjP1GkspYgjp6Rqq5HAKmIuA5nRxOogICTMe6sWP0H4DG97OJOmBMU1hHiRHV5yy71Gqku2tiRCHbYC8bCBhe/2fdYxOR94enWVqoAzJMtztSOoKjhlUtDQsxexuNp3jC59jt1Zhj4SLPaCr/iYdS5/eooNLKE7wDVGoxAaBovE98Xb2TWgAZ8Y+HrFT7SUc4ntXn/AD0RSo0QImTULRMb2W4kfTDK6Za1Clz9h/2BbWBjkJPMrzHxSrvWQTslIXiYJLuxVY3+8bbY5/BUclvqf2g31LqM7APpJn4PmXFQ1sxVjYKjafyAJ+mMw6qhGAqrH1GYF9ZeR70F4VlsumbpVEqNKEEq7uQCNzJteDGG7LrDVjb1+UoLWbqZoDt4Yy+UgBir1nG+7eX/AFG3tiNe9horRxg9T+c0tCvDOflFvA+I+FVdJ+9b1BxiksmLEmrdT4iQ3jedGXpmogGloHopPe1h/wBsFpXe2U7wFY3+V+0qLcQOhtLsNUmCQwM7+owxsJIDAY+0dAE0DgCeHlqYNmNMMfnc/ngm5EBA6zJuy9hPbMYuyoAjWnafrHz/ADxx2ouxoEBnO9YvpVdZq6fQCdjFsKI+Wcgxpl2BcwXOcIasjahTURY73mTMgWI7d8NJWmN5HT44nDUFGwsTcJotSqO1JtahtJUzIO/xbECYnp+MAt8qrYOD6fCNuwsG1vvGdOnmEZjVAdCxZNPQHoZjbvgdo5DD69xBBq2GFODF3GM5mXI8LLMaYmW8to9J/ng7JXYu4nH3EtWEThjzDuD8coaYcNquG1iLjcdsVQrURlc/LmDvoduVPEC5u46MqtKpTQkO5QoCBsJDDp/3GLpo01AJB24lEJXytzD8vzYq0kq16bUkawaqAoPzmMNLXqFAwu744gXrrycNiQ80Llc5l31BLLK1AB5YBOoHAl1jCwYUhsgY+EstJA5ORM25Zby/LB9WOYejpNC5d/5V7ny1Db/pI/PDGnOVEo3FkN4Jl1ZGY/ecwT1iFP1BxrUoQkytZZ/VwO0/P/D62lxexsfnt9cEcZ4g6n2tNuop/wAJQX0Ufgn++MK71+M16+sPp0qbUVy7j+0WqfkNCn5w/wCeLMxFCkSv/wC0ykZrglXIag6mpRJtVEGBcw43nUBfbEMfG+B9O38+EKjKBgTvhmfpspqiSFHmNp1Eze8dDttN8BspfOO/7QgZesJ8bLN91VcpqHlG03JibAwDtuMctNrcc9cdZQuBzIqHFaTWRLsLQLEx5tgDOq+LPoyvLGWS/ccCJMlzFWSx0sdViH0lVEXgkdxvHXfDLaOph6CC8Uj4y70M21RSjqjFfiBGpWkSInr6ehxj26REbdXkZ9IZcEcyv5+nlmpNRqIKSpD0ny2slCxljpA1LfoBHeJu9StwYOGJPQhsciZ+oqIPk/KOctwCiOIVRrNL/hocM10kaAwY/EbksT1brvjV0wZV2tiKksTk8ys//gqFCoKNRVApgqTquSNzG17kT0wnY9hLes1alQKAPSd0uFZdmUhYZSVjsRuG2m1/W0b2G1lij4GX8JWPyhVPgdGnUV6dY0YJGpWGxPmgGZB9Ba3vjhqXYEYzBNpa+4heRpUaRaKOpSJ1agZkmDb0UgWuR0xQnfjMIE2jyzjMU0MDxGW5IYP8JIiRpiZ2YX69xNkOzoJz1ixcGDPxXN/aVZihQqdarZGgXOo7H+usYDZp6jWePNnj1if4AdMyKhk6jZikuWqNFSsiuoP/AOsEFybQIBi569yBhnTYOBaPl85NukCV4HUdTLnxMP8A/mXZh+78DQvyKkx/XTA/abqSV+Iz9oXSpigGccJyZfNZhNMgqpkdN4M4yaq2sQKBnrmN3WhEDZxG/wBkrKjJUph1jSYuGB9N/liHpvobyiB8Wmw5BxKLU5aoU8wyjUTVZQikkaA29t2vNz2Hzb/FW2KBjGOvxjaYCljNOzaKlNdug/IYtqVUVKe8yaizOYJzTllfLhn2TzT2jcyL7Y68PsUrC6KwraR6xFy3mFNKtoadJME9wO/X3wiylchuuMx7UDLqY44cyEA1KgVSIidzjtNWrZDnA+EVvLKcIOYr5h53yeVPhD9467hV+H3JgA+m/pjT/CFhhQB8T1+0VyRyxjTgNc5jKrmGABqAkLM6RJj5xGBPpAgY5yekt4vnAHSHZbLCmBSNanAHfzW9MNNpth2vYoB+8q1m87wh/aIBy3TevUcZ6n4dS7UwncRIOuxtv7yDi66bTED+oMjoe8KdRcB/bMiqcs0eH0xUy2TfOutw7OrBT30C/wCC/PGotdZ8w80Sa+xuD5ZlvOfFsxm2L5hydMwgEKnoF6fngh5kbcDEq2TzLhdIdgp3UEgH3GxwN1GcmSrHGMy58v8Aw4yLxkzUpPE0HlVScrmFW7FpHuVsI9xgmm5GPjB3HawaWXJ5cIioPugD8Ovz3xvDgTDdiTmfmOLWxUnvLL1E3srFKkP6sBjAsm0nWR/bFq1aWXpuEzdIM9IMPJWVh50J7wPoCJggOUJ4lOB2i9rbHye8OocdC/2qNQYGHWpOm3ZwNMH1jCdmnKN5YUEMsFzPAcjmiatPTSq386aYbUIMrdGkfPbEiw9z9D0+kjDJ8YhHJGaDwvgOhXSTJEgGZ0xY373/AAxbxdwHzzLb0zzOP/AeY1g1Kq6lbUIupO15vsImPngdmoYeXbx84RGTqP0gnFuTdLBmzVMNJMeDAuesN8ug3xw1qr5dv5y4rLcj9pBw7g9csr0FDlX3BYbAWM2G1pI3Pvgi2Czy7Tg/L9Z1i7BnI/nwl44Nw77Ov2jNqoIEgDT0uSdMrYmRcmb4ao0wU72+giV95YbF+sQ5LjFE59K1RKmuo60laQVY1VEppgQEte8neLYaC8xXtGuVyi5tnapSRa2rz6x5lvaB1EAANscYdos8Q84morqqCF/+D6IOrSs9DBEdf4h1xcBgMbpQ3A9pAvI1Jo9JteBPoT+uLItmfKZBvXuJLT5IRRA0sOz+IR1P8fqfxxLJcTkN+U4alemJ1T5TVTqCUS3+ae2zEx8jgbLeR5WlxfWeoMIp8uIFA+z0QBYAQLTPtE3jAzXqW5J+3E7x6x0Jkpy65Uo58OmpdRBKqDJAta5jpi9emtFqs2eD6yj3oyED0nXF+I0/tbUWK61OoKdyGAgj6j5YX9p1WC8vjjP7SdIM1Agwg1kQFqcBiBJFtu/eJ64XNqooKGT4bO2HjA5sLZyQTtfDX4lU9/OTFvCLe7FdRVfMU+umW+kfrhcOGuAHMa8y0tmT8y0wy6S2kgalI6Mt1sN79OuGtW6q4U9McwWjz7wnuZzIbJkhdUoTp722/TEK6nThfjIVCuo+spXJit9naRB1GcZ+s5uwvfAmraeRmT5eitY5Ei+uqji/QKSfoY+Yw1oKmW9l+OD94C+zCMfhI+M8rUEzOZz+dk0jVbwaCg6qpFpIF9Npgbi5tv6KwBcsT8pk07rCFX6n0lr5cr+JkqdRQFDCdAEaQ2wA6RjEdSFbnnPP1jFmPFxEXA+GGhmKkMzqSrCo0THWn6xGqYFmHUYTucNsZePUD9Y6zbk80e52rSyw1UlQCo0uLSSevv8A74PqLQADVyMc55i1Nb3eV85HSK+NVqlIDM5ckqfjRd7dVjr3HXA6bApDVtjP6/GHRQ2a7BnEX8SXK8Q/dZlfBzDDyVgsG+wdfvD3/EY2NL7RDcW/ftFLtEV81fI9P9TJeNcu1clU8GsBI+Flurr0ZT1H1BscOuwJyOhiijjEsHKwlDjM1PWaVHImh8lG1df8J/PHaVvMfpK6ocD6yyfj+J/Q49DMKfmPLKSyjuwH4mMDbvCIMsJvLfCg9GP5YwGPebI6xM2WppXp592aaVqYWP7yljO8yQB772w/pSUXIHWL6gBjgx7wznQ5kulOkdQtrfQsGJj4t4vtaRO4xfU6pKADZ3ifA6GI+PZ2rVqLRdhRZTeqFGo9tIjb8ZPbCFuvDKCi5+cdqCBC7H6TzhvHKYkfafE0gkmrC7CwBCAktEROE2XUP1UD0wIK3W1kAVg5+MbrmjUVSKpiAQRY3v1GMyy21WIbtNeko6bgOs6o5dZ8pJY7QSSe+18UU3E+X8pdrFHBxJa+QFRYYt6EMQfxBnBkt1C87jKkr6CDjJZimCtPMOVI+Gp5x9bn8cOJ7TvX3hkQRqpbtgzNubK9YulSp5atFtJKiBclkcRsZUgnvpxv6W9bU3qZn6msoeZqvKvHKHEKVNa1JHrhbhwBqj7y2/EWi/TDLVo/UZiu5k6GF5/lov5UyuXQfxS8j5oyn64p4Q6BZYXH/wBjAMvwKhS8jZt5mNNKpXMH1/eGPmcBtrqUZcgQqWWN7q5kjZNPhWrmG7Fa1VP/ALmfwxmPrdOnlTJ/KNimwjL4H5zytw9mBHi1RIIH7x2IkRMuxuPYe2AtrgTwg+pzLLWB3+0X5rgleQUzddNIgAEEfO2pj6sScVXXWJ1rGPhC7EbvJi2aNFqDChmGIPhllKFiBIUkHytazTBIiBMjT0usrv8ALjmKajT7P6inp1le5/pnOZbKZ9QQXQUswtxD0ySUPVfNrXvthrUgDDwekbG6vPxnOfzNWl4bikAo0kwx2MWx5itEtZlLHPPabYORxL7ls3SzVESQbWI3/wBj6Yru3rss4YdPiJnFHpsyvSB8s5Flq1mM2IUXJBgSSJ9xgunXOGHaE1loKKvrDs2KVSqwdhqW25BHX2wHUMrWEvB1eIiDaOJPleHtS/s310yJ0ncT2IthgVFRms5GIN71sPnGD6xSMmKVKoolFYkQd11bx33thUlxlyPSNBt7DuYDyXwTRmWqtU1U6CQhHTVMiOh/2xsaB1cm1uAOT84LWsdgUdTLVl8sXd6tS7MIUdKadFH5k9T6AAc9n4liTwO0Tz4YCr/9MEp1CMq3h7guB7qxwj7tGBx1/WMkA6gbvhErcZ1KrqIUjzR27+4xnsW3FDx8o8unA4J+UK4lw2lmaJ0nzfEjg7Hpf37Ycr2KSRnPx/SLCyytuenpAeXcnUTQK7kvBlB8KxA7XO36YC7VbjtHEPa+VOI6ehQNdWMCqtMgXvBNz7g/mcMrt93OB+/+4nmwJ6jMB5l5eXOIaNQgVCCaLRs4vE/wsoII9juBjQ9nb1sZHPXp8/8A5A24KBlHSZvyarBaiuuh0co6n7rLYjBtam1+IfSNuWXnk1/31Re9P8iP54W0xyxl9UPKJZlNumPSjpMAjmfm3gyzXojvVT/UMBt4UwlQ84m25tjAC7lCB7sdI+uMTblgJsZwCYn51ycVhRWoKaJRQ7STrLL3tEC/tjRvuNOFUQGmrW3LNFnKOaOVV1VPENQEq0BfPtpMtPSRv944ytUq3nJ7cH/Yk6jRsxBSG57N5vxmFV6BQQyksCupSHVQDGx+8O23TA/CqxhSSf2Pf/kAmg1DDPSKOIUVqVxNN3p1GAD6goLX+JkBABJiAOowStilZ82CPh2+HygtR7Otq5PI+E5qZarVf7OjoKiqwWlTXQVAB1QzeZiWsSYER1wRXqrTeQSPU8/z6RQblG0GMs/ybmVNKuuZA0/GGhb3Ekiy2mfScCp11ZUqydemOfpzJIbqTzGmWzOcADPWorR0yHqRBJ+BV0ETPQm5E79RuaW8gU5/n5x6rWPkZEmy3OCqpFdIYf8AlnUpt0Ygeov2xP4Q9VPHxGDNStGftiV3j2ZoZpmNGdVRDTKOIgyGRrdNYE+k98NaJDS+09DLarTOas9xKPy4udzLinQOxm9lSepO4/PGyxVZhKGaazwfKOigV8zVrmLa6jFPkmrTHbVqMdtsYGr9sHJVOBNerQKoyw5lgRLWicZZZrOT1hvd47TuhmAk64xFL7T5xn5SLE3dJBm+ZsjTJ15tKbbxKn6G+Naurf5kDZ+XEVYleGxj54gC/tIyBY0y+tuhpU3M/LTaOuGPBsKf1EA+OYEtWOVf6QLN805a8eL6FabWIuDa4IOMxdLYj7lI4+MbXU1kYJk/DuP5bNJXpgStZf8AiaYENTqQAtcLvpYhQx+6wUm0nHoS/wDSJcY45iOzFo2HPPEMzr0jSp0XI11HVVXqbgGBvAF8eVprLgv8zmahZkckdIt5l4VVyOipljZ3hkOxsSPY2iRhp9OpO23pjg9xJovW7g9pbMpXFCgDUIDRL3sGO9+w2+WKo60rtXkxN1N1nwlQ4VQp187XBqlhZtSNcapkSOgjFXDELuHU46TQZzXV5ZYMzlK1CWpVDUUdGF/xH8sKvVsbKdPUf6gUtru4sGDB8/l8xmqSimyoSbk30jqR6++CabLt5hkDp8/jIY10kx9wXhiZemKayY+JmMye898Ppu5H39B8ojbYbDmJ+aubaWWC0wfjMFzMAxMe9j7Y5jvQpR25PrGNPpskPZ9BOuVK6nLsEI0l2beRcyf54VFjCtlbtC6tP6oPwgi8uvTBKOHUszQTBGokwPS8YDchf+px26QqapCdrAiKeE5t8tmzlqiNofzUzBgHqpPbqPwwSyvfWLR1HvD19D/uWtIccGWmhWomux1Q0AEH53+c/TAco1gLcDr9YsyWCrAlb5ppnx2zNNoaiPkVAlgfS4/D0wVXDE1nox+3oY3pxisK0fUs8K9FKynzIQ637dD7gkfPF6bnX3uqmKNVscr2MrHMPhU81Wqow0ZjQ9jPnK6SPQ+UGPXGvrbFtAKHPEpo6mQHcO8n5PrgZmP4kYfkf0wjpTh4fUjKS4jbHpkPlE8848xn555YpTm6A/8A9F+hnA7/AO2Zej3xNpyqBsygPSmD89TEflOM/SrmwGaF7YQ4lW/aXmUXOaajFQ9JArE+QMpPxekE4a1NRbzKORB6SwJwe8rdSpTpG+uZ8uqSFg2A3JMkm3rgChXXpNZXVQATBayUalT95WV5PqvXaGAM4LXWAOJZrlPBMP4dUNJnQEFCpi/bcevePTCOspxh1jNbqw2tI63OGZSoAQKtMCCHjy2vDbwe04PXSr15br2mRfSC/lHEaZDi1ZtCUBTdCS5p1XJImSFhm8wBv3v2EYVemsnLZB+ETf2fb/jjEE4xks3XdDmXpUaSC1NDq3kklR6zabYYprrqXavU9z+kPpNEUbfZ26CMOVchTMEedWJCsQYIm5iSB5hH88I66x1OzPpNhW3LunHPvADSRK9EAOrLqgQCGMSB/dYi/acF9n2k2eG5znoYrqL7BUSh+YjCuiZDKsq6fFzNVyCOviMYH/TCjpJBxqakllwO8ya7FqILRSmczbUFr0wzEEipTIgqFbTu2xgEx9MY40lPiFW+8632jZ4nlPEW8frVEJFTNspb+zZQaaTEjVILGCRN7RsdsN6WqojyIMd+5gbNda56/aLsll3LAZ/xCJHmerYAsoPlm4AJaYi2GDYmMafH2/5Fmvdu5j7M5TL5WrTVVVxUYKDACgE3Imf97Yz1N16sSSMfPmDB5jJ8g3iu9GkjXCuARr8qiJFrQQQJ9cAS/bUq2Ej6ccmEGc8R3luXTXya1QG8WqT4a2WFBNyD0MEz6iN8N+BtQM3UxurB6zPOI8MzGXY1a+YZKqEikEZSb/FqYCNMWg+1sOJehPh1jPrHE0mBvJx6S78sc70s5lFSsgGYy8VCYAnSYNRCIAt8S2sTE7Yvqqh4JVYKkt4m49+JeeP0zWoBhBZSrL2sRjAusNlQsPX4fGMabFdpX5xbmMipZFdpYgyGiGBEER/W2E9rLwOv6RoWeUkDiBcRFLLIGpeHTK2CIvxDqsKJJ9r4lPEus5OT9ePrLIeCGHEMyXGKj0jWalUoqP8AzIE+oEzHuBh+3SXY3L+XMXxXu2kw/wC3pSQ1qrqidSSAD/vgdFT53fkO8pYB7ogVXjQqvlQG00swrshuC2jTa/cGY3gYPqNK+0Fjx6DtJpC4YryRFvNHL652pTU1FSjSksoIDM0QB6CJv64BTqVrDFAAenPw/OFUkAbsnvIuVKKUS1BJA1GBNv6thS53tcFj1EZvxtzGNXOVaRhlZk6MoNvQjAWqb/EyAlb8jrGPDuMUyLmTO+CU6jwz/UBz6xa7TP8A4xXzfRWqUKgmoGBlDBKkGQY6bbx0wy1q5bOOe8No9yDk8T6hwRq9BqbA0g4INxq09RIkX+e+BaetxbuXn4npJu1Kqc9YxyXC8tk6OnVYdXab/O34Rhl1VjubBb8oqbLbW4lF5+cMKLoQUZiwYddBAt6X+eD6XTtUhdj14hzZ/h6Sfk6pOapeuofipxWkYsAnX+4ZoStH449JRk1rPP3HDmYBygJztAf3ifwVjiup/tmE0w84m28IozWdzslJR+JkYW0a8kmM6k+UCG8a4FRrg1Ho06jR99AxjsJ2w6R3igPaZjx3gS0tB0FEaQB0ESAR2t9NumM7UAod01NK27ymDZHKUswdVcFmBJIiZYTMA2IbeBtbfCT2tWPIY8EVxhhB+Ics0Wl0WpSuYImAYkeU2O0G832xerWPwCQRKtpFzkcH5xRT5azSkqVohj95mae56W9yI2w3+LoxnmD2XfCG8O5YqpURq1UoRcqIkEkQBcqykTeRgL6yvoozC1pbwSY5q8LBdqrO9YLYhwFGmd4UCbfjNsLPqifL0+MJ4fqYz4DooSpCqFllCiDJvbqIG87/AJpalzYc95faNu0TjmbMtVRVQM41ITpGwDBpP92Vwb2chSzex+UX1G3Ztgv7QuFeJ9mptU0kFkNwJdUSFE2nUCo7n3xts5TzYzjrMG7LHyiV7OUsy7U6NI1qxdVasSvmSY1AkwNW4iemFR4Kk2OQOwx3g10trsfLPOea2d8Y1DRKUwABqhpHqJNpm0dcRofw2Nqt5vtGG0VijJE+5n5py70qZpUW8S0mpJCwPukNf0j09sTptC6O2W4+H7wQqx1Ej4YoZ/DzVMujJqWoi+ZZFtuh2v1j1x1gON1ZwR2jD6AsR4fWaDwmr9nohErVQxNgVp1IkCQC5DDvgTNgcgZ+QjtXs8qMHBH2kme5o+z0BQpjMVsyVgO4XcmJJmBYyABAkDBCwcZY4gxpWVunEo+f4Ez0hVqVNdRzbcAdOtj7zgNd4V9qjgfnHnqNnvdYTylwhaOXzrswZzooqRtDnU5nrZY/740kcON0z7wUYLJOJcy5yk1WgtRVTZWjzaSAerAdd4wn+C06nI+2eJBvY8SGtzVnG0kik2kD7k3/AIt7H2I9sWr0lK5wM59ZBufsZ8vOGcCwppp3K0xJ9y+on54ZSpFGFUD6SjOzHJMUZrOZiu01Gep/iNh/9V+mJ5lcwXPpUChSCQNgGDAT/hJAxG36Tsmahynm6WZyWVVmANPWpsJHmEQ33dvyxle1LkDLXn5jtzHNIrqC6j+CH81Z5FpClRUOxYCf4Q27k+g29YxnoK+nYc59T6RmoWZ3tB+D0lFVGUwCb++FQxL+aFtyUMs2cJ1AJBteSf5GcMXOA3kidWMeeDvy9TZtbm/YfjfviV055y2Jf8a4GFE9+1IGKouph0G/+w9TgAIzhBkdjO8NsBnOIu4tm85MKqLP3viK/Kwn8cG8Q58+T8ISuunGRIaHLYbzZirUqtvc2+QAgfLFw7EZ6fATmtxwglb5welNDL0xCpTdhfu6j53Buexw/Sztpwx6dv3gxjxD6zjlNozND/FH4gjAqv7gl7fcM0dnAJ98ej039oTB1HvmYTyLTnO0/QMf/iR+uB6r+2YTTe/NVzvGPsplhNOppV7XHlEMPa9uuFNPbtYqY5bXuGe8u+XValFGRgZEqwMgg/mDjTxM7ODK1x2nTI+zvLEiyGdS9iHFwAdj+eAOqngw9bMORMz4twXiGWr/ALsLXX4lYeVmHqNtQ6x74z7q9Op2vkZmjRdcRkYM+r8xZhQfEy9ZBpghkMbzIYCAbWN98LV6OsHyMDGfxJPVcQb/AMZKyKArF7WNwfQRc2MWBvfFx7PO4sTxLfigOMQrOVK9YL4GUzDCQQTTKx3uevUGepxWvTomdzD9ZDagx5keDZ2orRlKlN2Mli6Be52aZ9t8UGnBbIOfpKtqkA5j7hHKFdvNm6qEkzoSTE9CxN/fT0xJ0yk8cQLa3A4EccSpUsrSOhF6tp/iIEgnqdhJPQYPVpz4g9BFGtLAkyl8eqgU8u7AFtRhmNgxHWPn+eD6vmsiG0ePE5jPh9LQdWoEwJbc39fWxt6484xLTUcgjE+zXFqbLpcoY2k7/wBfocVFdp5HaR4YU59ZXs7wbJVgx0iJvEqe19J3tufyw6mo1NWBn7yDRW/JET1czVoPSWivipSDJqtJQfcLLaB2/uidsalZDAs/f7QXC4A6SLI8cpV6p1t4QIklja1gvT3PecEajcdxhq9QCMR/wzwPENVXDAKSZEAW29d9x6YS1xBUKvUwxO7iecw8TSmpB1FiJVVIKkGPlE9R29bg0unYn4d4Cy0KITy1RjIa2s1apKjvHlH11GcadtoprzMpz4rwZOVTUYuyyx7xJ9p2xhv7SZjgGEFQHWRty46r4gQrf4Sb+9vywxV7RCuEJ+shqh1EC4lkgTTqKIR9WuBsUgmOnmBEepON+tty5ipGDiVXmXOMH8NbFbFV+FfSfvHeSev44vx3hxWQIiTPupmcW2gwLAjiaN+zjO0qoq0W8rupakQY86iYtuGA29PWymp06WKSy5I6S9VrIwweJe8nnMlUPg6lXZmUESZuJIuMeb2EAbxgevrNBi/JByY+qZPLUV1AqvrP6nBbaaVXIOTFlsuc4i+pxQGfBUtHUWH4n/fCbce7x6mMrT/7md5bI1ao/etpUmSqm5923/CMFqqLDnoe56mQ9qVnyDJh9JaVEaKa/Jf6+uDEoh8vJ+HMXO+3lpHxHK1atN/DgVGWwPTtfF1qLtnHXqJy2LWQD0HeULhuRz9bMijWNWmJ+Et93qxK2Nh0thuvTqxCIOe8O1wCl5WuNcXGY4pWZD+6RRRp9tNO31aT88aGsAWsAdonpiS2Y74EYzFE9PEX8xjJXhgY/Zypmi5mzHp/2x6HRn+nMLUjLzFv2crOcHpTY/6R+uKar3JbS+/Lzz1/ZEeo/KMZgPnmj/jH/wCyLjiVsmKAP7zLkqw9GJZD7EW9wcbiHKAiZVgwxlj5lCKqVXgFWA1G1mm0+8Yq65nVnBxA6TUaq6SVMdDFsLX0CxcERhLGQ5E5qilTEM5U9CTI+c2OMlqlrOG6xsOz9IvpcNVXaqrUQTuyoJI7G/1nvgZR9vvQviA8YjOhmqCLBqaj6n+WCVitV5OYFxYzcCQ1OYKSnTrA9Ov4C+LI7E7UkNSQMtEXEOcwCRSho6g9fyH1PthqnSOTluINnQDiULjnG6pqivUYsUMkDYLswj/CTjRVQBiLs0ttLL061AU2PlMEN27Efj+E4XsTPEMjY5nGU5SKtpqZh/KwMAiZFt+oj07YyrFKseBmPLeSAZYcpytlJPkFSdzU85teZaepxXDFsBvtx+kobmxkwrLcq5KDNBATchbA+4WAfngtIJXzk5+cFZdZnyyWryvlpkU6PoXpBiOu+O8AjO1+Pjn/AHJGpbuD9DFtfk3Lk/2WU9/B0n6HFD4w48QfmP3hBeP/AFM8fkygBC01/wArso/+IwOwW9myf58IRNUO4lY47yNTGmKVSpUmKYBJQehvZQb4tp9RqfE2HEmzwnXdLS+RSmtGlb91b8RckesHBPa9ZNOREtO3mMNXI6Cw3DXXuPTHnWXZ/PtGQ2ZPXpDTftibMFQB1lQeZQs1CjwxGoOHg/wq1Ofluf8ALj2OmBFYzAcGyZm1KzFp1GTPrN5+vzxxbmarV8cRbn0hVEXvJ73t+RwwhiF64nXCK7ISysVZbqw6EXB/HF3wDEpqfCszS4jT8Wmirm0UCtTAg1ALB17mOny6CUNXpmsXyHp2jen1GzgwLM8Xy0aXrecGNLE6ge0G4PpGMgaPUg52x4Xr6zQeTc0lSlHXtGAUKA7Vt3gtUCMMJDxlqy1jTFUU0IlYAkjqJPY9u+K3A1y1G11zjmDZDJVKTa6WYYM261POrfOdQ/H5YGupxyw59RxC2BWGCOJ3mOd/CdUKA1VbS6KZkRuvXtYjGhU9m4OB/wBi34ZCCM/KHZ7mWg1KoxbQy0izqTpYKQe1xN9sFy/iKVBBMD4e0EE5EwLgBhwcaWq6YgqDzL7w6r56bdnU/UYyu+Y+ek0nijQ/yxt6Y4U/OZNq5Mxj9nmaSnmXqO2lVpGT2llvi2oUkACU0zYJzLtz0D4bN01G+MsAhuZo5BWVL9lfMVPL52pTqVFQVlAVmIA1pJAJNgGDML9YHXGzSPJiZtnvYM3POpTzmWamSvnHeRYyPlbFzzB42nMzLjHLFXLEtRL0yd9PX8wcDye8KCO0T5TmbM5fVTr/AL6mf4vKR7FdjiGqSwYYSwsZDkQn7Z4kvSzZop/BVpAsJ6Kyr5x269++FzoU7CHGrbuYFns4tIxUrVqh6myqPXSh1QO5Pfy4sujqXqJQ6tz0M5yVLxV8xBDfdFhH+Wx+c4aVFXhRAM7N1MbpwxgthA9sTKytczL4dOpJuRpH+Yx+uKycwLlXmhstFOpLUvqnt3Hp+HYjxulw2JqprLXZWWoQtSmGV1IIJBIPobFfxwGyhX94QyXFekrXGeNZjLMzqfGpp5XamfMhBg6ltAnrt64UbQDPBwYwNUMcjM9PNtUKpfWFN5ImZ2nRt9NsAbSXHvDLbTOW55Qx++Sx6SPS97/PAW0t/TBhFso9RCMlzygM+MDIgAAmfr+mIXSXA5OZLPSR1Eno89y0U1LtNgqkX9uuLpo7Qc5g2spxLHwPjC1ajGsHDJ8KhCUk9dYWC3TsOk7jR0+nFfmY8xG6wnyqOIBxHxEqNWjUG+ITv7dosPkO2COosBVuhlRx0hvDOZKRsWn06j0jGLZ7HcNlDkQvig/OFZnioYEUwb9T/LBdP7L2NueQXlB4yDTqip8USGB6qbEfPG0IMnvFuZ4eKstS84JmVuwPZlF59RY79YwN6iTH6tYNuG6xRneBOwght7gI0+5JGkfM/LF66ysHfejCI85Tp0l8NSGeZZgZC9lB+8epO1gB1wQgmIkiDZTPvRdalJyjrdWU3H9dscAZXcJfuG8wUOJvTGYyyjNpDeOlg6rE6h3jbf3wn7RY16dmX5feM6TzWAS/UKIputahBGzqD2G4x5eoWPjA5Az/ALmm5BBV4TzBVWqiVBTD+G17agA2/TvGGT4ty+UEQFYFZwT1g70ZAqjMUsrQCxU8UiQwJnSGIv6H8MM6H2etykuMEGVv1RrOOsr+Z5pyeWDJw5RXrtOrM1BNzvpG5+g98b6U1V/OZ72WOfNM14tw/NVqpfwa9RmuzCm5mY6gYIMAQWDmH8O5dzK3akU/xsq/6iMK2oW6RitgvWWbhmVJuHVouQk1NugNINfC/wCCY9Yc6pBLjkM5ma6B61II8kaYggBjpnzG5EG3fDoqIziKG5fWYzwj4M1//M3+tMHfrAV95q/KHwD2H+kYrZDDpGfGOvtii9ZY9Im4J8I/9XBB1lO007O/AfbFjBrMQ5p/5jHLLP0gXEv7Sh7N+mDGDixfib/Ef1wE9ZdZHldz744STLfwX+zHtjpWVznb4f8AMP1xE6VA4rJmnfs//wCRT/1qn5Y5ussvSR8C/tX/AMNT/ScQ8sJLkP7Or/8Az0P9eYxC9BCn3pm/Mn9ufYflgy+7Fz1mscg/2lT/ANFf0xFnSWE55L+PN4CekJLmnw/LFZ0W8S+A/PFZMon/AO0++CDtIHWWrK/APbFTLjpK5zH8XyxEqZW+Ff8AMD2P6Y5esGY95x/sflgh6SZQamJErI3xHeQY/wCRv+a/9p/ywvrP7R+kY0v9wRrU+I/+uv8ApOB6b3/oY5qfdmj8X/5Ee/64un9sxIe/IMt8Y/w/rjk7/wA7Szx3SwWDlM5t3PvhhYF4h5I+M++OgT1mpD+vpgizjIq3T2xME0//2Q==;" vertex="1" parent="1">
          <mxGeometry x="342.5" y="690" width="294" height="183.23" as="geometry" />
        </mxCell>
        <mxCell id="irkbsp8metoC4uSoySUS-41" value="Rating out of 5 stars" style="rounded=0;whiteSpace=wrap;html=1;" vertex="1" parent="1">
          <mxGeometry x="480" y="580" width="180" height="30" as="geometry" />
        </mxCell>
        <mxCell id="irkbsp8metoC4uSoySUS-42" value="Author Name" style="text;html=1;strokeColor=none;fillColor=none;align=center;verticalAlign=middle;whiteSpace=wrap;rounded=0;" vertex="1" parent="1">
          <mxGeometry x="495" y="560" width="150" height="20" as="geometry" />
        </mxCell>
        <mxCell id="irkbsp8metoC4uSoySUS-43" value="25 word decription" style="text;html=1;strokeColor=none;fillColor=none;align=center;verticalAlign=middle;whiteSpace=wrap;rounded=0;" vertex="1" parent="1">
          <mxGeometry x="510" y="640" width="80" height="20" as="geometry" />
        </mxCell>
      </root>
    </mxGraphModel>
  </diagram>
</mxfile>
